# xmcd
#
# Track frame offsets: 
#        150
#        11459
#        21769
#        31495
#        41898
#        52316
#        62363
#        71955
#        83247
#        94226
#        103874
#        116487
#        127031
#        137067
#        147780
#        159808
#
# Disc length: 2233 seconds
#
# Revision: 1
# Processed by: cddbd v1.5.2PL0 Copyright (c) Steve Scherf et al.
# Submitted via: ExactAudioCopy v1.0b4
#
DISCID=e108b710
DTITLE=Bobby Mitchel and The Toppers - I'm Gonna Be A Wheel Someday  (LP
DTITLE=)
DYEAR=1900
DGENRE=Blues
TTITLE0=I'm Crying
TTITLE1=Rack 'em Back
TTITLE2=4 - 11 =44
TTITLE3=The Wedding Bells Are Ringing
TTITLE4=Meant For Me
TTITLE5=One Friday Morning
TTITLE6=Baby's Gone
TTITLE7=Sister Lucy
TTITLE8=I'm Gonna Be A Wheel Someday
TTITLE9=Try Rock And Roll
TTITLE10=64 Hours
TTITLE11=I've Got My Fingers Crossed
TTITLE12=I Try So Hard
TTITLE13=Well, I Done Got Over It
TTITLE14=Walking In Circles
TTITLE15=I Don't Want To Be A Wheel No More
EXTD=
EXTT0=
EXTT1=
EXTT2=
EXTT3=
EXTT4=
EXTT5=
EXTT6=
EXTT7=
EXTT8=
EXTT9=
EXTT10=
EXTT11=
EXTT12=
EXTT13=
EXTT14=
EXTT15=
PLAYORDER=
